<svg xmlns="http://www.w3.org/2000/svg" viewBox="0 0 1600 900" role="img" aria-label="Sound system graphic">
  <defs>
    <linearGradient id="sndBg" x1="0" y1="0" x2="1" y2="1">
      <stop offset="0%" stop-color="#0c1524"/>
      <stop offset="60%" stop-color="#0e1e35"/>
      <stop offset="100%" stop-color="#1f1f30"/>
    </linearGradient>
    <linearGradient id="sndAccent" x1="0" y1="0" x2="1" y2="0">
      <stop offset="0%" stop-color="#f38a49"/>
      <stop offset="50%" stop-color="#ffbf8f"/>
      <stop offset="100%" stop-color="#f38a49"/>
    </linearGradient>
  </defs>

  <rect width="1600" height="900" fill="url(#sndBg)"/>

  <rect x="180" y="180" width="300" height="540" rx="22" fill="#0a1220" stroke="url(#sndAccent)" stroke-width="8"/>
  <rect x="1120" y="180" width="300" height="540" rx="22" fill="#0a1220" stroke="url(#sndAccent)" stroke-width="8"/>

  <g fill="none" stroke="#ffbf8f" stroke-width="8">
    <circle cx="330" cy="340" r="82"/>
    <circle cx="330" cy="560" r="108"/>
    <circle cx="1270" cy="340" r="82"/>
    <circle cx="1270" cy="560" r="108"/>
  </g>

  <g stroke="url(#sndAccent)" stroke-width="10" fill="none">
    <path d="M700 430c45-40 155-40 200 0"/>
    <path d="M665 380c72-64 228-64 300 0"/>
    <path d="M745 485c20-16 90-16 110 0"/>
  </g>

  <g fill="#ffbf8f">
    <rect x="730" y="560" width="18" height="110" rx="9"/>
    <rect x="765" y="525" width="18" height="145" rx="9"/>
    <rect x="800" y="500" width="18" height="170" rx="9"/>
    <rect x="835" y="540" width="18" height="130" rx="9"/>
    <rect x="870" y="575" width="18" height="95" rx="9"/>
  </g>

  <text x="800" y="780" text-anchor="middle" fill="#ffe8d2" font-family="Arial, sans-serif" font-size="68" font-weight="700">PREMIUM SOUND SYSTEM</text>
</svg>
